<?xml version="1.0" encoding="utf-8"?>
<svg width="100%" height="100%" viewBox="0 0 1200 1080" version="1.1" xmlns="http://www.w3.org/2000/svg" style="fill-rule:evenodd;clip-rule:evenodd;stroke-linejoin:round;stroke-miterlimit:2;">
  <rect id="Artboard1" x="0" y="0" width="1200" height="1080" style="fill:rgb(46,46,46);"/>
  <path d="M 510.68 809.946 C 509.383 809.009 507.918 807.462 506.285 805.306 C 504.652 803.15 503.32 801.095 502.289 799.142 C 501.477 799.204 500.844 799.236 500.391 799.236 C 495.219 799.236 491.137 797.669 488.144 794.536 C 485.152 791.404 483.656 787.079 483.656 781.564 C 483.656 776.017 485.156 771.689 488.156 768.579 C 491.156 765.47 495.242 763.915 500.414 763.915 C 505.586 763.915 509.664 765.474 512.648 768.591 C 515.633 771.708 517.125 776.04 517.125 781.587 C 517.125 785.525 516.336 788.88 514.758 791.654 C 513.18 794.427 510.945 796.454 508.055 797.736 C 510.445 801.611 512.68 804.501 514.758 806.407 L 510.68 809.946 Z M 492.867 790.798 C 494.57 792.97 497.086 794.056 500.414 794.056 C 503.742 794.056 506.254 792.974 507.949 790.81 C 509.644 788.646 510.492 785.587 510.492 781.634 C 510.492 777.634 509.644 774.532 507.949 772.329 C 506.254 770.126 503.75 769.025 500.437 769.025 C 497.109 769.025 494.59 770.13 492.879 772.341 C 491.168 774.552 490.312 777.65 490.312 781.634 C 490.312 785.571 491.164 788.626 492.867 790.798 Z" style="fill: white; fill-rule: nonzero; stroke-width: 1;"/>
  <path d="M 529.125 798.743 L 529.125 769.493 L 519.117 769.493 L 519.117 764.407 L 545.461 764.407 L 545.461 769.493 L 535.5 769.493 L 535.5 798.743 L 529.125 798.743 Z" style="fill: white; fill-rule: nonzero; stroke-width: 1;"/>
  <path d="M 559.734 799.236 C 555.594 799.236 552.371 798.044 550.066 795.661 C 547.762 793.279 546.609 789.986 546.609 785.782 C 546.609 781.689 547.695 778.431 549.867 776.009 C 552.039 773.587 555 772.368 558.75 772.353 C 562.297 772.353 565.051 773.462 567.012 775.681 C 568.973 777.9 569.953 780.845 569.953 784.517 C 569.953 784.782 569.949 785.212 569.941 785.806 C 569.934 786.4 569.93 786.837 569.93 787.118 L 552.797 787.118 C 552.859 789.525 553.519 791.388 554.777 792.708 C 556.035 794.029 557.766 794.689 559.969 794.689 C 562.781 794.689 565.484 793.954 568.078 792.486 L 568.945 796.845 C 566.367 798.439 563.297 799.236 559.734 799.236 Z M 552.914 783.251 L 564.164 783.251 C 564.164 781.157 563.687 779.548 562.734 778.423 C 561.781 777.298 560.461 776.736 558.773 776.736 C 557.195 776.736 555.863 777.282 554.777 778.376 C 553.691 779.47 553.07 781.095 552.914 783.251 Z" style="fill: white; fill-rule: nonzero; stroke-width: 1;"/>
  <path d="M 574.969 798.743 L 574.969 772.986 L 580.125 772.986 L 580.922 776.923 C 582.609 774.22 585.055 772.868 588.258 772.868 C 588.93 772.868 589.477 772.9 589.898 772.962 L 589.805 778.095 C 589.18 778.001 588.531 777.954 587.859 777.954 C 585.594 777.954 583.902 778.556 582.785 779.759 C 581.668 780.962 581.109 782.634 581.109 784.775 L 581.109 798.743 L 574.969 798.743 Z" style="fill: white; fill-rule: nonzero; stroke-width: 1;"/>
  <path d="M 593.648 798.743 L 593.648 772.986 L 598.617 772.986 L 599.32 776.267 C 599.633 775.876 599.934 775.529 600.223 775.224 C 600.512 774.919 600.91 774.575 601.418 774.193 C 601.926 773.81 602.465 773.493 603.035 773.243 C 603.605 772.993 604.309 772.782 605.144 772.611 C 605.98 772.439 606.875 772.353 607.828 772.353 C 609.875 772.353 611.512 772.767 612.738 773.595 C 613.965 774.423 614.828 775.392 615.328 776.501 C 616.25 775.173 617.445 774.15 618.914 773.431 C 620.383 772.712 622.016 772.353 623.812 772.353 C 626.766 772.353 628.934 773.189 630.316 774.861 C 631.699 776.532 632.391 779.009 632.391 782.29 L 632.391 798.743 L 626.227 798.743 L 626.227 784.118 C 626.227 781.603 625.949 779.786 625.394 778.669 C 624.84 777.552 623.781 776.993 622.219 776.993 C 619.828 776.993 618.109 778.071 617.062 780.228 C 616.625 781.181 616.328 782.329 616.172 783.673 L 616.172 798.743 L 610.031 798.743 L 610.031 783.837 C 610.031 781.54 609.727 779.829 609.117 778.704 C 608.508 777.579 607.406 777.017 605.812 777.017 C 604.516 777.017 603.398 777.345 602.461 778.001 C 601.523 778.657 600.812 779.517 600.328 780.579 C 599.969 782.157 599.789 784.048 599.789 786.251 L 599.789 798.743 L 593.648 798.743 Z" style="fill: white; fill-rule: nonzero; stroke-width: 1;"/>
  <path d="M 638.578 798.743 L 638.578 772.986 L 644.719 772.986 L 644.719 798.743 L 638.578 798.743 Z M 638.578 769.236 L 638.578 763.986 L 644.742 763.986 L 644.742 769.236 L 638.578 769.236 Z" style="fill: white; fill-rule: nonzero; stroke-width: 1;"/>
  <path d="M 651.117 798.743 L 651.117 772.986 L 656.062 772.986 L 656.742 776.243 C 659.367 773.65 662.281 772.353 665.484 772.353 C 668.484 772.353 670.73 773.216 672.223 774.943 C 673.715 776.669 674.461 779.173 674.461 782.454 L 674.461 798.743 L 668.297 798.743 L 668.297 783.204 C 668.281 781.126 667.945 779.571 667.289 778.54 C 666.633 777.509 665.453 776.993 663.75 776.993 C 662.422 776.993 661.207 777.333 660.105 778.013 C 659.004 778.693 658.203 779.548 657.703 780.579 C 657.406 781.798 657.258 783.673 657.258 786.204 L 657.258 798.743 L 651.117 798.743 Z" style="fill: white; fill-rule: nonzero; stroke-width: 1;"/>
  <path d="M 687.305 799.236 C 684.914 799.236 682.98 798.575 681.504 797.255 C 680.027 795.935 679.289 794.032 679.289 791.548 C 679.289 788.876 680.164 786.896 681.914 785.607 C 683.664 784.318 686.305 783.501 689.836 783.157 C 690.32 783.095 690.844 783.032 691.406 782.97 C 691.969 782.907 692.602 782.845 693.305 782.782 C 694.008 782.72 694.562 782.665 694.969 782.618 L 694.969 781.259 C 694.969 779.696 694.609 778.56 693.891 777.849 C 693.172 777.138 692.078 776.782 690.609 776.782 C 688.516 776.782 685.93 777.368 682.852 778.54 C 682.836 778.493 682.578 777.782 682.078 776.407 C 681.578 775.032 681.32 774.329 681.305 774.298 C 684.336 773.001 687.617 772.353 691.148 772.353 C 694.617 772.353 697.141 773.107 698.719 774.614 C 700.297 776.122 701.086 778.564 701.086 781.939 L 701.086 798.743 L 696.539 798.743 C 696.523 798.681 696.352 798.157 696.023 797.173 C 695.695 796.189 695.531 795.665 695.531 795.603 C 694.25 796.853 692.996 797.771 691.769 798.357 C 690.543 798.943 689.055 799.236 687.305 799.236 Z M 688.969 794.876 C 690.391 794.876 691.629 794.536 692.684 793.857 C 693.738 793.177 694.492 792.353 694.945 791.384 L 694.945 786.415 C 694.898 786.415 694.488 786.446 693.715 786.509 C 692.941 786.571 692.523 786.603 692.461 786.603 C 689.977 786.821 688.156 787.29 687 788.009 C 685.844 788.728 685.266 789.884 685.266 791.478 C 685.266 792.571 685.586 793.411 686.227 793.997 C 686.867 794.583 687.781 794.876 688.969 794.876 Z" style="fill: white; fill-rule: nonzero; stroke-width: 1;"/>
  <path d="M 716.297 799.095 C 714.531 799.095 713.066 798.888 711.902 798.474 C 710.738 798.06 709.82 797.4 709.148 796.493 C 708.477 795.587 708.008 794.509 707.742 793.259 C 707.477 792.009 707.344 790.454 707.344 788.595 L 707.344 763.493 L 713.484 763.095 L 713.484 788.478 C 713.484 790.79 713.758 792.357 714.305 793.177 C 714.852 793.997 715.914 794.407 717.492 794.407 C 718.273 794.407 719.266 794.321 720.469 794.15 L 720.633 798.532 C 720.617 798.532 720.426 798.571 720.059 798.65 C 719.691 798.728 719.34 798.794 719.004 798.849 C 718.668 798.904 718.242 798.958 717.727 799.013 C 717.211 799.068 716.734 799.095 716.297 799.095 Z" style="fill: white; fill-rule: nonzero; stroke-width: 1;"/>
  <path d="M 600 518.333 C 600.004 523.004 597.877 527.433 594.231 530.352 L 517.308 591.891 C 514.579 594.074 511.187 595.264 507.692 595.264 C 499.248 595.264 492.3 588.316 492.3 579.872 C 492.3 575.199 494.429 570.772 498.077 567.853 L 559.981 518.333 L 498.077 468.814 C 494.429 465.895 492.3 461.468 492.3 456.795 C 492.3 448.35 499.248 441.402 507.692 441.402 C 511.187 441.402 514.579 442.593 517.308 444.775 L 594.231 506.314 C 597.877 509.233 600.004 513.662 600 518.333 Z M 692.308 564.487 L 615.385 564.487 C 606.944 564.487 600 571.431 600 579.872 C 600 588.312 606.944 595.256 615.385 595.256 L 692.308 595.256 C 700.748 595.256 707.693 588.312 707.693 579.872 C 707.693 571.431 700.748 564.487 692.308 564.487 Z M 800.001 379.871 L 800.001 656.795 C 800.001 673.674 786.11 687.564 769.231 687.564 L 430.769 687.564 C 413.89 687.564 400 673.674 400 656.795 L 400 379.871 C 400 362.993 413.89 349.102 430.769 349.102 L 769.231 349.102 C 786.11 349.102 800.001 362.993 800.001 379.871 Z M 769.231 656.795 L 769.231 379.871 L 430.769 379.871 L 430.769 656.795 L 769.231 656.795 Z" style="fill: rgb(238, 238, 238); fill-rule: nonzero; stroke-width: 1.923;"/>
</svg>